HIERARCHY
ROOT Hips
{
    OFFSET 0.0 0.0 0.0
    CHANNELS 6 Xposition Yposition Zposition Zrotation Xrotation Yrotation
    JOINT Spine
    {
        OFFSET 0.0 5.0 0.0
        CHANNELS 3 Zrotation Xrotation Yrotation
        JOINT Chest
        {
            OFFSET 0.0 5.0 0.0
            CHANNELS 3 Zrotation Xrotation Yrotation
            JOINT Neck
            {
                OFFSET 0.0 8.0 0.0
                CHANNELS 3 Zrotation Xrotation Yrotation
                JOINT Head
                {
                    OFFSET 0.0 5.0 0.0
                    CHANNELS 3 Zrotation Xrotation Yrotation
                    End Site
                    {
                        OFFSET 0.0 3.0 0.0
                    }
                }
            }
            JOINT LeftShoulder
            {
                OFFSET -5.0 0.0 0.0
                CHANNELS 3 Zrotation Xrotation Yrotation
                JOINT LeftArm
                {
                    OFFSET 0.0 -10.0 0.0
                    CHANNELS 3 Zrotation Xrotation Yrotation
                    JOINT LeftForeArm
                    {
                        OFFSET 0.0 -10.0 0.0
                        CHANNELS 3 Zrotation Xrotation Yrotation
                        End Site
                        {
                            OFFSET 0.0 -3.0 0.0
                        }
                    }
                }
            }
        }
    }
}

MOTION
Frames: 29
Frame Time: 0.033333
970.000000 442.938926 137.207292 0.000000 0.000000 0.000000 0.000000 0.000000 0.000000 29.678605 21.092499 0.000000 180.000000 8.006873 0.000000 29.744881 4.485585 -0.000000 150.255119 -1.669682 30.000000 19.983107 3.080242 0.000000 18.000000 0.768623 0.000000
1354.522934 467.411410 124.094433 0.000000 0.000000 0.000000 0.000000 0.000000 0.000000 150.622570 -0.949316 4.973798 -29.377430 -2.915830 4.973798 140.176400 -1.470604 3.759997 -12.221629 -3.697863 29.763441 132.794256 -0.302263 -3.759997 -2.626015 0.073088 0.313953
969.997807 442.887864 117.238179 0.000000 0.000000 0.000000 0.000000 0.000000 0.000000 31.061399 15.763835 9.635073 180.000000 -5.884879 9.635073 30.285790 2.879278 7.460697 149.714210 -11.584941 29.057495 19.151579 -0.306629 -7.460697 18.000000 1.132308 0.626666
1246.736984 514.278152 114.590549 0.000000 0.000000 0.000000 0.000000 0.000000 0.000000 143.557092 -29.276706 13.690942 -36.442908 20.545978 13.690942 133.761037 -6.140574 11.043737 -156.950665 -4.507394 27.893295 0.000000 0.000000 0.000000 1.928484 0.407041 0.936907
1245.221100 458.637464 110.574164 0.000000 0.000000 0.000000 0.000000 0.000000 0.000000 160.701064 3.441354 16.886559 -19.298936 -7.578488 16.886559 140.193827 4.797238 14.452610 -157.554825 -5.565636 26.289200 29.500467 5.030317 -14.452610 -15.049953 -0.503032 1.243449
1257.365570 418.514181 113.980780 0.000000 0.000000 0.000000 0.000000 0.000000 0.000000 -143.710676 -9.246264 19.021130 36.289324 13.228693 19.021130 163.220413 -4.812807 17.633558 11.688054 6.474637 24.270510 152.038385 -2.376272 -17.633558 -2.339948 0.076051 1.545085
1275.099564 408.163741 112.135015 0.000000 0.000000 0.000000 0.000000 0.000000 0.000000 -132.929531 8.449662 19.960535 47.070469 -7.487604 19.960535 173.491912 5.524868 20.536413 -160.709681 -4.998846 21.869059 33.138793 6.406449 -20.536413 -14.686121 -0.640645 1.840623
1290.611115 384.880857 83.565638 0.000000 0.000000 0.000000 0.000000 0.000000 0.000000 -132.705235 0.724890 19.645745 47.294765 3.865048 19.645745 -173.778854 2.315778 23.115397 20.496835 2.412704 19.122720 -161.220290 -4.222437 -23.115397 1.723235 0.377844 2.128896
1302.817154 380.305352 94.774074 0.000000 0.000000 0.000000 0.000000 0.000000 0.000000 -131.493915 6.267665 18.096541 48.506085 3.562085 18.096541 -165.393697 -4.900310 25.329838 23.154815 -2.486088 16.074804 -178.200316 0.356687 -25.329838 0.138141 -0.017018 2.408768
1304.997711 379.563582 79.433967 0.000000 0.000000 0.000000 0.000000 0.000000 0.000000 -126.727972 10.353439 15.410265 53.272028 -11.795196 15.410265 -160.219593 0.750734 27.144812 28.448880 -4.106255 12.773379 -174.368770 -0.578470 -27.144812 0.079526 -0.211731 2.679134
1311.668472 386.890390 71.544606 0.000000 0.000000 0.000000 0.000000 0.000000 0.000000 -122.308728 -0.108117 11.755705 57.691272 10.651256 11.755705 -158.801130 -10.908789 28.531695 150.942637 -1.379480 9.270510 -154.878332 -4.336451 -28.531695 2.695409 0.516149 2.938926
1305.131836 395.180186 86.503100 0.000000 0.000000 0.000000 0.000000 0.000000 0.000000 -125.112810 11.616236 7.362491 54.887190 -16.660096 7.362491 -146.487292 2.650534 29.468618 -175.167369 0.204650 5.621439 -159.224034 -4.615999 -29.468618 1.782042 0.477533 3.187120
1296.320457 392.734526 78.150853 0.000000 0.000000 0.000000 0.000000 0.000000 0.000000 -131.035750 17.736930 2.506665 48.964250 -22.771826 2.506665 -128.969563 3.496784 29.940802 38.856147 -14.367827 1.883716 -134.776850 2.737555 -29.940802 3.458429 -0.101334 3.422736
1306.963577 386.612041 73.317798 0.000000 0.000000 0.000000 0.000000 0.000000 0.000000 -124.469622 4.583377 -2.506665 55.530378 -3.926059 -2.506665 -109.994856 1.344945 29.940802 37.691309 -2.577121 -1.883716 -118.274788 1.178554 -29.940802 5.098336 0.007966 3.644843
969.892723 442.572198 71.758652 0.000000 0.000000 0.000000 0.000000 0.000000 0.000000 41.287575 -39.828832 -7.362491 180.000000 -8.308671 -7.362491 30.974696 26.340568 29.468618 149.025304 18.704244 -5.621439 15.072869 -1.183122 -29.468618 18.000000 -0.768957 3.852566
969.876883 442.545207 60.540690 0.000000 0.000000 0.000000 0.000000 0.000000 0.000000 42.241956 1.684000 -11.755705 180.000000 -9.490345 -11.755705 30.826133 12.341701 28.531695 149.173867 -18.596912 -9.270510 14.823070 8.875756 -28.531695 18.000000 -0.051022 4.045085
969.859960 442.518116 62.732655 0.000000 0.000000 0.000000 0.000000 0.000000 0.000000 43.199779 39.214028 -15.410265 180.000000 -11.711116 -15.410265 30.649504 -6.765173 27.144812 149.350496 -13.499741 -12.773379 14.587557 -2.379689 -27.144812 18.000000 0.807569 4.221640
969.841956 442.490926 50.161555 0.000000 0.000000 0.000000 0.000000 0.000000 0.000000 44.157210 35.941780 -18.096541 180.000000 -18.488073 -18.096541 30.446417 4.096244 25.329838 149.553583 -9.454190 -16.074804 14.366154 -2.966723 -25.329838 18.000000 0.059812 4.381533
969.822873 442.463637 48.845418 0.000000 0.000000 0.000000 0.000000 0.000000 0.000000 45.110117 34.569130 -19.645745 180.000000 -6.382123 -19.645745 30.218633 10.027158 23.115397 149.781367 -3.517054 -19.122720 14.158653 -1.972489 -23.115397 18.000000 0.276660 4.524135
969.802712 442.436251 62.916594 0.000000 0.000000 0.000000 0.000000 0.000000 0.000000 46.054109 -13.786962 -19.960535 180.000000 19.943971 -19.960535 29.968037 6.627190 20.536413 150.031963 21.497691 -21.869059 13.964823 -4.146424 -20.536413 18.000000 -0.247335 4.648882
1187.040939 541.658249 46.083007 0.000000 0.000000 0.000000 0.000000 0.000000 0.000000 82.806623 3.477178 -19.021130 -97.193377 -0.776906 -19.021130 45.395981 0.887717 17.633558 -156.144455 -2.600485 -24.270510 0.000000 0.000000 0.000000 0.000000 0.000000 0.000000
1182.242889 522.024286 39.571339 0.000000 0.000000 0.000000 0.000000 0.000000 0.000000 -105.721938 22.676866 -16.886559 74.278062 -33.628577 -16.886559 -155.708006 -1.285958 14.452610 -157.302521 -2.698265 -26.289200 0.000000 0.000000 0.000000 2.684983 0.248616 4.842916
1180.914459 527.065626 36.557594 0.000000 0.000000 0.000000 0.000000 0.000000 0.000000 88.055617 -8.520458 -13.690942 -91.944383 6.918073 -13.690942 -158.862018 -2.409612 11.043737 -151.747289 -1.328997 -27.893295 0.000000 0.000000 0.000000 0.000000 0.000000 0.000000
1236.800194 541.387432 33.515022 0.000000 0.000000 0.000000 0.000000 0.000000 0.000000 -85.588400 2.481342 -9.635073 94.411600 22.482543 -9.635073 -159.297106 -19.017459 7.460697 -157.915391 -2.435640 -29.057495 26.607362 2.222626 -7.460697 14.926890 0.350145 4.960574
1161.066513 575.006626 59.348713 0.000000 0.000000 0.000000 0.000000 0.000000 0.000000 -81.021168 1.264024 -4.973798 98.978832 -1.256306 -4.973798 -102.851701 -1.462696 3.759997 -157.041007 -2.170339 -29.763441 21.429890 2.237239 -3.759997 10.859432 -0.275881 4.990134
1255.636253 512.645942 35.681134 0.000000 0.000000 0.000000 0.000000 0.000000 0.000000 77.832564 0.478385 -0.000000 -102.167436 5.005851 -0.000000 -158.264834 -2.514790 0.000000 -130.745502 -2.288955 -30.000000 -157.699225 -1.577366 -0.000000 0.000000 0.000000 0.000000
1265.118484 521.473864 58.461539 0.000000 0.000000 0.000000 0.000000 0.000000 0.000000 64.078276 4.135193 4.973798 -115.921724 -0.588365 4.973798 41.397952 -1.770624 -3.759997 -139.329851 -1.761125 -29.763441 20.223252 -0.303868 3.759997 -16.047574 0.103297 4.990134
1228.099480 522.138258 56.909244 0.000000 0.000000 0.000000 0.000000 0.000000 0.000000 71.050901 -1.456120 9.635073 -108.949099 5.346685 9.635073 150.099970 -6.475487 -7.460697 -139.894702 -0.610893 -29.057495 -156.275691 -2.484054 7.460697 0.000000 0.000000 0.000000
1240.357246 528.695873 56.135019 0.000000 0.000000 0.000000 0.000000 0.000000 0.000000 65.413351 11.154506 13.690942 -114.586649 6.507897 13.690942 147.242328 -17.145286 -11.043737 -154.470720 -2.890367 -27.893295 25.557225 2.655852 11.043737 -15.444278 -0.265585 4.911436
